# xmcd CD database file
#
# Track frame offsets:
#	150
#	23774
#	40186
#	62140
#	80448
#	98131
#	112590
#	126066
#	144482
#	163480
#	182889
#	197767
#	212058
#	226875
#	245333
#	261085
#	273603
#	287524
#	300712
#	317492
#
# Disc length: 4436 seconds
#
# Revision: 1
# Processed by: cddbd v1.5.1PL0 Copyright (c) Steve Scherf et al.
# Submitted via: CDex 1.51
#
DISCID=18115214
DTITLE=diverse - Line-Fire-Edition (12)
DYEAR=2005
DGENRE=LineDance
TTITLE0=01/ Dance On  [ Dance On ]
TTITLE1=02 - Until The End [ Stuck On You  ] 3 T
TTITLE2=03 - Simply Cha Cha [ When The Sun Goes Down] K. Cheney and U. Kracker
TTITLE3=04 - A Devil In Me [ Diavolo In Me ] Zucchero Feat. Solomon Burke
TTITLE4=05 - Slow Burn [ Fire (american) ] Des'ree and Babyface
TTITLE5=06 - Burning Love [ Burning Love ] Wayonna
TTITLE6=07 - Sweet, Sweet Smile [Sweet Sweet Smile ] Carpenters
TTITLE7=08 - Mustang Sally [ Mustang Sally ] Commitments
TTITLE8=09 - Femme Like U [ Femme Like You ] K.Maro
TTITLE9=10 - Bounce [ Bounce ] Sarah Connor
TTITLE10=11 - Mars Attack [ Chocolate Choco Choco ] Soul Control
TTITLE11=12 - Splish Splash [ Splish Splash ]
TTITLE12=13 - Wanna Be Me Forever [ I Wanna Be Your Man ]
TTITLE13=14 - Mexican Outlaw [ Blue Rodeo ] Bellamy Brothers
TTITLE14=15 - All Day Long [ Mr. Mom ] Lonestar
TTITLE15=16 - Thrill Of The Chase [ Thrill Of The Chase ] Brett James
TTITLE16=17 - Do Ya [ Do You Wanna Dance ]
TTITLE17=18 - Movin ' Up [ Up ! ]
TTITLE18=19 - Jai Du Boogie [ Jai Du Boogie ]
TTITLE19=20 - Everyday [ Everyday ]
EXTD=YEAR: 2005
EXTT0=
EXTT1=
EXTT2=
EXTT3=
EXTT4=
EXTT5=
EXTT6=
EXTT7=
EXTT8=
EXTT9=
EXTT10=
EXTT11=
EXTT12=
EXTT13=
EXTT14=
EXTT15=
EXTT16=
EXTT17=
EXTT18=
EXTT19=
PLAYORDER=
